# xmcd CD database file
#
# Track frame offsets:
#	150
#	18925
#	38200
#	55225
#	78987
#	96175
#	115762
#	132725
#	155275
#	172262
#
# Disc length: 2544 seconds
#
# Revision: 0
# Processed by: cddbd v1.5.1PL0 Copyright (c) Steve Scherf et al.
# Submitted via: CDex 1.40Beta5
#
DISCID=7f09ee0a
DTITLE=金城武 - 給我心愛的人
DYEAR=1995
DGENRE=Blues
TTITLE0=誰說不可以
TTITLE1=留念
TTITLE2=愛我吧
TTITLE3=仍然愛妳不變
TTITLE4=燃燒激情
TTITLE5=給我心愛的人
TTITLE6=陽光情人
TTITLE7=我不想哭泣
TTITLE8=伴妳一生
TTITLE9=幸運還是妳
EXTD=YEAR: 1995 ID3G:   0
EXTT0=
EXTT1=
EXTT2=
EXTT3=
EXTT4=
EXTT5=
EXTT6=
EXTT7=
EXTT8=
EXTT9=
PLAYORDER=
